<?xml version="1.0" encoding="utf-8"?>
<!-- Generator: Adobe Illustrator 24.2.3, SVG Export Plug-In . SVG Version: 6.00 Build 0)  -->
<svg version="1.1" id="Layer_1" xmlns="http://www.w3.org/2000/svg" xmlns:xlink="http://www.w3.org/1999/xlink" x="0px" y="0px"
	 width="65px" height="64px" viewBox="0 0 65 64" style="enable-background:new 0 0 65 64;" xml:space="preserve">
<style type="text/css">
	.st0{fill:#652B82;}
	.st1{fill:#662580;}
	.st2{fill:#ED7203;}
</style>
<path class="st0" d="M43.2,25.6c0.8,0,1.4-0.6,1.4-1.4V8.1c0-4.2-3.4-7.6-7.6-7.6H10.7c-4.2,0-7.6,3.4-7.6,7.6v48.3
	c0,4.2,3.4,7.6,7.6,7.6h26.4c3.5,0,6.5-2.4,7.4-5.8c0.2-0.8-0.3-1.5-1-1.7c-0.4-0.1-0.7,0-1.1,0.2c-0.3,0.2-0.6,0.5-0.6,0.9
	c-0.5,2.1-2.4,3.6-4.6,3.6H10.7c-2.6,0-4.8-2.1-4.8-4.8V8.1c0-2.6,2.1-4.8,4.8-4.8h3.2l0.3,1.2c0.4,1.8,2,3.1,3.8,3.1h5.4
	c0.8,0,1.4-0.6,1.4-1.4s-0.6-1.4-1.4-1.4H18c-0.5,0-0.9-0.4-1-0.8l-0.1-0.6h14.1l-0.1,0.6c-0.1,0.5-0.5,0.8-1,0.8h-2.5
	c-0.8,0-1.4,0.6-1.4,1.4s0.6,1.4,1.4,1.4h2.5c1.8,0,3.4-1.3,3.8-3.1l0.3-1.2h3.2c2.6,0,4.8,2.1,4.8,4.8v16.1
	C41.8,25,42.5,25.6,43.2,25.6z"/>
<g>
	<path class="st0" d="M12.7,39.9c-2.2,0-3.9,1.8-3.9,3.9c0,2.2,1.8,3.9,3.9,3.9s3.9-1.8,3.9-3.9C16.6,41.7,14.9,39.9,12.7,39.9z
		 M12.7,45c-0.6,0-1.1-0.5-1.1-1.1s0.5-1.1,1.1-1.1s1.1,0.5,1.1,1.1S13.3,45,12.7,45z"/>
	<path class="st0" d="M12.7,50.4c-2.2,0-3.9,1.8-3.9,3.9s1.8,3.9,3.9,3.9s3.9-1.8,3.9-3.9S14.9,50.4,12.7,50.4z M12.7,55.5
		c-0.6,0-1.1-0.5-1.1-1.1s0.5-1.1,1.1-1.1s1.1,0.5,1.1,1.1S13.3,55.5,12.7,55.5z"/>
	<path class="st0" d="M19.2,42.8h6.1c0.8,0,1.4-0.6,1.4-1.4s-0.6-1.4-1.4-1.4h-6.1c-0.8,0-1.4,0.6-1.4,1.4S18.4,42.8,19.2,42.8z"/>
	<path class="st0" d="M19.2,47.8h9.3c0.8,0,1.4-0.6,1.4-1.4S29.2,45,28.4,45h-9.3c-0.8,0-1.4,0.6-1.4,1.4S18.4,47.8,19.2,47.8z"/>
	<path class="st0" d="M12.7,30c-2.2,0-3.9,1.8-3.9,3.9s1.8,3.9,3.9,3.9s3.9-1.8,3.9-3.9S14.9,30,12.7,30z M12.7,35
		c-0.6,0-1.1-0.5-1.1-1.1s0.5-1.1,1.1-1.1s1.1,0.5,1.1,1.1S13.3,35,12.7,35z"/>
	<path class="st0" d="M19.2,53.2h15.4c0.8,0,1.4-0.6,1.4-1.4s-0.6-1.4-1.4-1.4H19.2c-0.8,0-1.4,0.6-1.4,1.4S18.4,53.2,19.2,53.2z"/>
	<path class="st0" d="M19.2,37.6h13.3c0.8,0,1.4-0.6,1.4-1.4s-0.6-1.4-1.4-1.4H19.2c-0.8,0-1.4,0.6-1.4,1.4S18.4,37.6,19.2,37.6z"/>
	<path class="st0" d="M19.2,33.1h13.3c0.8,0,1.4-0.6,1.4-1.4s-0.6-1.4-1.4-1.4H19.2c-0.8,0-1.4,0.6-1.4,1.4S18.4,33.1,19.2,33.1z"/>
	<path class="st0" d="M34.6,55.5H19.2c-0.8,0-1.4,0.6-1.4,1.4s0.6,1.4,1.4,1.4h15.4c0.8,0,1.4-0.6,1.4-1.4S35.4,55.5,34.6,55.5z"/>
</g>
<g>
	<path class="st0" d="M46.3,51.2c-0.2-0.8-1-1.3-1.8-1.2c-1.5,0.1-2.9-0.3-4.1-1.2l-8.7-6.9c-0.5-0.4-0.6-1-0.2-1.5
		c0.3-0.5,1-0.7,1.5-0.4l4.7,2.7c0.6,0.4,1.4,0.3,2-0.1c0.6-0.5,0.8-1.2,0.6-1.9l-2.3-7.4c-0.1-0.4-0.4-0.7-0.7-0.8
		c-0.3-0.2-0.7-0.2-1.1-0.1c-0.4,0.1-0.7,0.4-0.8,0.7s-0.2,0.7-0.1,1.1l1.5,4.8l-2.4-1.4c-1.8-1.1-4.1-0.5-5.3,1.3
		c-1.1,1.7-0.8,4,0.9,5.3l8.7,6.9c1.5,1.2,3.3,1.8,5.2,1.9l3.1,10c0.2,0.6,0.7,1,1.3,1c0.1,0,0.3,0,0.4-0.1c0.4-0.1,0.7-0.4,0.8-0.7
		s0.2-0.7,0.1-1.1L46.3,51.2z"/>
	<path class="st0" d="M63.8,57l-3-9.8c0-0.1,0-0.2,0-0.3l0-0.5c0.2-2.3-0.1-4.5-0.7-6.7l-3.5-11.4c-0.3-1-1-1.8-1.9-2.2
		c-0.9-0.5-1.9-0.6-2.9-0.3c-0.6,0.2-1.1,0.5-1.5,0.9c-1-0.7-2.2-0.9-3.4-0.6c-0.6,0.2-1.2,0.5-1.6,1c-1-0.6-2.2-0.8-3.3-0.5
		c-0.3,0.1-0.6,0.2-0.9,0.4l-1.3-4.2c-0.6-2-2.8-3.1-4.8-2.5c-2,0.6-3.1,2.8-2.5,4.8l1.7,5.4c0.2,0.7,1,1.2,1.8,0.9
		c0.4-0.1,0.7-0.4,0.8-0.7s0.2-0.7,0.1-1.1l-1.7-5.4c-0.1-0.3-0.1-0.5,0.1-0.8c0.1-0.2,0.3-0.4,0.6-0.5c0.3-0.1,0.5-0.1,0.8,0.1
		c0.2,0.1,0.4,0.3,0.5,0.6l3.9,12.5c0.2,0.7,1,1.2,1.8,0.9c0.4-0.1,0.7-0.4,0.8-0.7s0.2-0.7,0.1-1.1l-1.5-4.8
		c-0.2-0.5,0.1-1.1,0.7-1.2c0.5-0.2,1.1,0.1,1.2,0.7l1.5,4.8c0.2,0.7,1,1.2,1.8,0.9c0.4-0.1,0.7-0.4,0.8-0.7s0.2-0.7,0.1-1.1L47,30
		c-0.2-0.5,0.1-1.1,0.7-1.2c0.5-0.2,1.1,0.1,1.2,0.7l1.2,3.8c0.2,0.7,1,1.2,1.8,0.9c0.7-0.2,1.2-1,0.9-1.8l-0.9-2.7
		c-0.1-0.3-0.1-0.5,0.1-0.8c0.1-0.2,0.3-0.4,0.6-0.5c0.3-0.1,0.5-0.1,0.8,0.1c0.2,0.1,0.4,0.3,0.5,0.6l3.5,11.3
		c0.5,1.9,0.8,3.8,0.6,5.7l0,0.5c0,0.4,0,0.9,0.2,1.3l3,9.8c0.2,0.6,0.7,1,1.3,1c0.1,0,0.3,0,0.4-0.1c0.4-0.1,0.7-0.4,0.8-0.7
		C63.9,57.7,63.9,57.3,63.8,57z"/>
</g>
<g>
	<g>
		<path class="st1" d="M28.4,11H24h0c-0.5,0-0.9,0.4-1,0.8L22.7,13c-0.1,0.7,0.4,1.3,1,1.3c0.5,0,0.9-0.4,1-0.8l0.1-0.3h3.3
			c1.9,0,3.4,1.5,3.4,3.4S30,20,28.1,20h-2.6l-0.1,0c-1.9,0-2.2,1.7-2.2,2.1L23,22.9l0,0c-0.4,1.8,1.6,2.4,1.6,2.4l0,0l0.5-2.2
			l0.1-0.6c0.1-0.4,0.4-0.4,0.5-0.4h2.7c3.1,0,5.5-2.5,5.5-5.5C33.9,13.5,31.4,11,28.4,11z"/>
		<path class="st1" d="M15.8,16.8c-0.1,0-0.2-0.1-0.3-0.2c-0.1-0.1-0.2-0.2-0.2-0.3c-0.1-0.1-0.1-0.2-0.1-0.4c0-0.2,0-0.3,0.1-0.4
			c0.1-0.1,0.1-0.3,0.3-0.4c0.1-0.1,0.2-0.2,0.4-0.3c0.2-0.1,0.3-0.1,0.5-0.1c0.1,0,0.2,0,0.3,0c0.1,0,0.2,0,0.2,0.1
			c0.1,0,0.1,0.1,0.2,0.1l0.1,0.1L17,15.5c-0.1-0.1-0.1-0.1-0.2-0.2c-0.1,0-0.2-0.1-0.3-0.1c-0.1,0-0.2,0-0.3,0.1
			c-0.1,0-0.2,0.1-0.2,0.2c-0.1,0.1-0.1,0.2-0.2,0.2c0,0.1-0.1,0.2-0.1,0.3c0,0.1,0,0.1,0,0.2l0.1,0.1l0.2,0.1c0.1,0,0.1,0,0.2,0
			c0.1,0,0.1,0,0.2,0l0.2-0.1l0.1-0.3h-0.4l0.1-0.4h0.9l-0.3,1c-0.1,0.1-0.2,0.1-0.3,0.1c-0.1,0-0.2,0.1-0.4,0.1
			C16,16.9,15.9,16.9,15.8,16.8z"/>
		<path class="st1" d="M18.3,14.9h0.4l0.3,2h-0.4l-0.1-0.4h-0.8l-0.3,0.4H17L18.3,14.9z M18.5,16l-0.1-0.7L18,16H18.5z"/>
		<polygon class="st1" points="20,15.3 19.4,15.3 19.5,14.9 21.2,14.9 21.1,15.3 20.5,15.3 20,16.9 19.6,16.9 		"/>
		<polygon class="st1" points="21.3,14.9 22.8,14.9 22.7,15.3 21.7,15.3 21.5,15.7 22.5,15.7 22.4,16 21.4,16 21.3,16.5 22.4,16.5 
			22.3,16.9 20.8,16.9 		"/>
		<path class="st1" d="M22.5,16.5l0.3-0.3c0.1,0.1,0.2,0.2,0.3,0.2c0.1,0,0.2,0.1,0.3,0.1c0.1,0,0.2,0,0.2-0.1
			c0.1,0,0.1-0.1,0.1-0.2l0-0.1l-0.1-0.1l-0.1-0.1c0,0-0.1,0-0.2-0.1c-0.1,0-0.1-0.1-0.2-0.1L23,15.8l-0.1-0.1c0-0.1,0-0.1,0-0.2
			c0-0.1,0-0.2,0.1-0.3c0-0.1,0.1-0.1,0.2-0.2c0.1-0.1,0.2-0.1,0.3-0.1c0.1,0,0.2,0,0.3,0c0.2,0,0.3,0,0.4,0.1
			c0.1,0.1,0.2,0.1,0.3,0.2l-0.3,0.3c-0.1-0.1-0.1-0.1-0.2-0.2c-0.1,0-0.2-0.1-0.3-0.1c-0.1,0-0.2,0-0.2,0.1l-0.1,0.1l0,0.1l0.1,0.1
			l0.1,0.1c0,0,0.1,0,0.2,0.1c0.1,0,0.1,0.1,0.2,0.1l0.2,0.1l0.1,0.1c0,0.1,0,0.1,0,0.2c0,0.1,0,0.2-0.1,0.3c0,0.1-0.1,0.2-0.2,0.2
			c-0.1,0.1-0.2,0.1-0.3,0.1c-0.1,0-0.2,0-0.3,0C23,16.9,22.7,16.8,22.5,16.5z"/>
		<path class="st1" d="M25.4,14.9h0.6c0.1,0,0.3,0,0.4,0c0.1,0,0.2,0.1,0.3,0.2c0.1,0.1,0.2,0.2,0.2,0.4c0,0.1,0,0.2-0.1,0.3
			c0,0.1-0.1,0.2-0.2,0.2c-0.1,0.1-0.2,0.1-0.3,0.2c-0.1,0-0.2,0.1-0.4,0.1h-0.4l-0.2,0.6h-0.4L25.4,14.9z M25.9,15.9
			c0.1,0,0.3,0,0.4-0.1c0.1-0.1,0.1-0.1,0.1-0.3c0-0.1,0-0.1-0.1-0.2l-0.1-0.1c0,0-0.1,0-0.2,0h-0.3l-0.2,0.6H25.9z"/>
		<path class="st1" d="M26.9,16.9l-0.1-0.1l-0.1-0.1l0-0.2c0-0.1,0-0.2,0.1-0.2c0-0.1,0.1-0.1,0.1-0.2c0.1,0,0.1-0.1,0.2-0.1
			c0.1,0,0.2,0,0.3,0c0.1,0,0.2,0,0.2,0c0.1,0,0.1,0,0.2,0l0,0l0-0.1l0-0.1l-0.1-0.1c0,0-0.1,0-0.2,0c-0.1,0-0.1,0-0.2,0
			c-0.1,0-0.1,0-0.2,0.1L27,15.4c0.1,0,0.2-0.1,0.3-0.1c0.1,0,0.2,0,0.3,0c0.2,0,0.4,0,0.5,0.1c0.1,0.1,0.2,0.2,0.2,0.3l0,0.1l0,0.1
			l-0.2,0.8h-0.4l0-0.2c-0.1,0.1-0.1,0.1-0.2,0.2c-0.1,0-0.2,0.1-0.2,0.1C27.1,16.9,27,16.9,26.9,16.9z M27.4,16.6l0.1-0.1l0.1-0.1
			l0.1-0.1l0,0l-0.1,0l-0.2,0c-0.1,0-0.2,0-0.2,0.1c-0.1,0-0.1,0.1-0.1,0.2l0.1,0.1l0.1,0L27.4,16.6z"/>
		<path class="st1" d="M28.2,17.3l-0.2-0.1l0.2-0.3l0.1,0l0.1,0l0.1,0l0.1-0.1l-0.2-1.5h0.4l0.1,1l0.6-1H30l-0.9,1.6
			c-0.1,0.2-0.2,0.3-0.3,0.3c-0.1,0.1-0.2,0.1-0.3,0.1C28.3,17.3,28.3,17.3,28.2,17.3z"/>
		<path class="st2" d="M25.3,17.5L25.3,17.5l-7.5,0c-0.4,0-0.6,0.3-0.6,0.6c0,0.4,0.3,0.6,0.6,0.6h2.6l-0.1,0.5c0,0-0.1,0.7-0.6,0.7
			h-0.3h-0.8h-0.5h-1.5c-1.9,0-3.3-1.5-3.2-3.4c0.1-1.9,1.7-3.4,3.6-3.4h2.3c1.3,0,1.8-1.1,2-1.7l0.1-0.4h-4.3c-3,0-5.6,2.5-5.8,5.5
			c-0.1,3,2.2,5.5,5.2,5.5h1.3h0.2h1.5h0.5h0.1l0,0c1.4,0,1.9-1.3,2.1-1.8l0-0.2l0-0.1l0,0l0.3-1.2h0.9
			C25.1,18.6,25.4,17.5,25.3,17.5L25.3,17.5z"/>
	</g>
</g>
</svg>
