<svg xmlns="http://www.w3.org/2000/svg" width="43" height="43" viewBox="0 0 43 43">
  <g id="government" transform="translate(0)">
    <path id="Path_141" data-name="Path 141" d="M214.221,190.958a3.779,3.779,0,1,0-3.785-3.779,3.786,3.786,0,0,0,3.785,3.779Zm0-5.039a1.26,1.26,0,1,1-1.265,1.26,1.264,1.264,0,0,1,1.265-1.26Z" transform="translate(-192.763 -167.996)"/>
    <path id="Path_142" data-name="Path 142" d="M1.26,24.666H2.567V41.74A1.26,1.26,0,0,0,3.827,43H39.173a1.26,1.26,0,0,0,1.26-1.26V24.666H41.74A1.26,1.26,0,0,0,43,23.406v-4.2a1.26,1.26,0,0,0-.818-1.18L22.76,10.75V7.559h6.078A1.26,1.26,0,0,0,30.1,6.3V1.26A1.26,1.26,0,0,0,28.838,0H21.5a1.26,1.26,0,0,0-1.26,1.26v9.49L.818,18.027A1.26,1.26,0,0,0,0,19.207v4.2a1.26,1.26,0,0,0,1.26,1.26ZM12.624,40.48h-2.53V30.965a1.261,1.261,0,0,1,1.26-1.26h.01a1.261,1.261,0,0,1,1.26,1.26Zm7.569,0V29.26A1.261,1.261,0,0,1,21.453,28h.01a1.261,1.261,0,0,1,1.26,1.26V40.48Zm12.713,0h-2.53V30.965a1.261,1.261,0,0,1,1.26-1.26h.01a1.261,1.261,0,0,1,1.26,1.26ZM22.76,2.52h4.819v2.52H22.76ZM2.519,20.08,21.5,12.969,40.48,20.08v2.066H28.18a1.26,1.26,0,1,0,0,2.52h9.733V40.48H35.426V30.965a3.784,3.784,0,0,0-3.779-3.779h-.01a3.784,3.784,0,0,0-3.779,3.779V40.48H25.242V29.26a3.784,3.784,0,0,0-3.779-3.779h-.01a3.784,3.784,0,0,0-3.779,3.779V40.48h-2.53V30.965a3.784,3.784,0,0,0-3.779-3.779h-.01a3.784,3.784,0,0,0-3.779,3.779V40.48H5.086V24.666h9.649a1.26,1.26,0,1,0,0-2.52H2.519Z"/>
  </g>
</svg>
