<?xml version="1.0" encoding="utf-8"?>
<!-- Generator: Adobe Illustrator 24.2.3, SVG Export Plug-In . SVG Version: 6.00 Build 0)  -->
<svg version="1.1" id="Layer_1" xmlns="http://www.w3.org/2000/svg" xmlns:xlink="http://www.w3.org/1999/xlink" x="0px" y="0px"
	 width="65px" height="64px" viewBox="0 0 65 64" style="enable-background:new 0 0 65 64;" xml:space="preserve">
<path d="M43.2,25.6c0.8,0,1.4-0.6,1.4-1.4V8.1c0-4.2-3.4-7.6-7.6-7.6H10.7c-4.2,0-7.6,3.4-7.6,7.6v48.3c0,4.2,3.4,7.6,7.6,7.6h26.4
	c3.5,0,6.5-2.4,7.4-5.8c0.2-0.8-0.3-1.5-1-1.7c-0.4-0.1-0.7,0-1.1,0.2c-0.3,0.2-0.6,0.5-0.6,0.9c-0.5,2.1-2.4,3.6-4.6,3.6H10.7
	c-2.6,0-4.8-2.1-4.8-4.8V8.1c0-2.6,2.1-4.8,4.8-4.8h3.2l0.3,1.2c0.4,1.8,2,3.1,3.8,3.1h5.4c0.8,0,1.4-0.6,1.4-1.4s-0.6-1.4-1.4-1.4
	H18c-0.5,0-0.9-0.4-1-0.8l-0.1-0.6H31L30.9,4c-0.1,0.5-0.5,0.8-1,0.8h-2.5c-0.8,0-1.4,0.6-1.4,1.4s0.6,1.4,1.4,1.4h2.5
	c1.8,0,3.4-1.3,3.8-3.1L34,3.3h3.2c2.6,0,4.8,2.1,4.8,4.8v16.1C41.8,25,42.5,25.6,43.2,25.6z"/>
<g>
	<path d="M46.3,51.2c-0.2-0.8-1-1.3-1.8-1.2c-1.5,0.1-2.9-0.3-4.1-1.2l-8.7-6.9c-0.5-0.4-0.6-1-0.2-1.5c0.3-0.5,1-0.7,1.5-0.4
		l4.7,2.7c0.6,0.4,1.4,0.3,2-0.1c0.6-0.5,0.8-1.2,0.6-1.9L38,33.3c-0.1-0.4-0.4-0.7-0.7-0.8c-0.3-0.2-0.7-0.2-1.1-0.1
		c-0.4,0.1-0.7,0.4-0.8,0.7s-0.2,0.7-0.1,1.1l1.5,4.8l-2.4-1.4c-1.8-1.1-4.1-0.5-5.3,1.3c-1.1,1.7-0.8,4,0.9,5.3l8.7,6.9
		c1.5,1.2,3.3,1.8,5.2,1.9L47,63c0.2,0.6,0.7,1,1.3,1c0.1,0,0.3,0,0.4-0.1c0.4-0.1,0.7-0.4,0.8-0.7s0.2-0.7,0.1-1.1L46.3,51.2z"/>
	<path d="M63.8,57l-3-9.8c0-0.1,0-0.2,0-0.3v-0.5c0.2-2.3-0.1-4.5-0.7-6.7l-3.5-11.4c-0.3-1-1-1.8-1.9-2.2c-0.9-0.5-1.9-0.6-2.9-0.3
		c-0.6,0.2-1.1,0.5-1.5,0.9c-1-0.7-2.2-0.9-3.4-0.6c-0.6,0.2-1.2,0.5-1.6,1c-1-0.6-2.2-0.8-3.3-0.5c-0.3,0.1-0.6,0.2-0.9,0.4
		l-1.3-4.2c-0.6-2-2.8-3.1-4.8-2.5s-3.1,2.8-2.5,4.8l1.7,5.4c0.2,0.7,1,1.2,1.8,0.9c0.4-0.1,0.7-0.4,0.8-0.7s0.2-0.7,0.1-1.1
		l-1.7-5.4c-0.1-0.3-0.1-0.5,0.1-0.8c0.1-0.2,0.3-0.4,0.6-0.5s0.5-0.1,0.8,0.1c0.2,0.1,0.4,0.3,0.5,0.6l3.9,12.5
		c0.2,0.7,1,1.2,1.8,0.9c0.4-0.1,0.7-0.4,0.8-0.7s0.2-0.7,0.1-1.1l-1.5-4.8c-0.2-0.5,0.1-1.1,0.7-1.2c0.5-0.2,1.1,0.1,1.2,0.7
		l1.5,4.8c0.2,0.7,1,1.2,1.8,0.9c0.4-0.1,0.7-0.4,0.8-0.7s0.2-0.7,0.1-1.1L47,30c-0.2-0.5,0.1-1.1,0.7-1.2c0.5-0.2,1.1,0.1,1.2,0.7
		l1.2,3.8c0.2,0.7,1,1.2,1.8,0.9c0.7-0.2,1.2-1,0.9-1.8l-0.9-2.7c-0.1-0.3-0.1-0.5,0.1-0.8c0.1-0.2,0.3-0.4,0.6-0.5s0.5-0.1,0.8,0.1
		c0.2,0.1,0.4,0.3,0.5,0.6l3.5,11.3c0.5,1.9,0.8,3.8,0.6,5.7v0.5c0,0.4,0,0.9,0.2,1.3l3,9.8c0.2,0.6,0.7,1,1.3,1
		c0.1,0,0.3,0,0.4-0.1c0.4-0.1,0.7-0.4,0.8-0.7C63.9,57.7,63.9,57.3,63.8,57z"/>
</g>
<path d="M17.7,10.6c-5.7,0-10.3,4.6-10.3,10.3c0,5.7,4.6,10.3,10.3,10.3s10.3-4.6,10.3-10.3C27.9,15.2,23.3,10.6,17.7,10.6z
	 M16.5,21.5l5.7,5.7c-1.3,0.9-2.9,1.4-4.5,1.4c-4.3,0-7.8-3.5-7.8-7.8c0-3.8,2.8-7,6.5-7.6v8C16.4,21.3,16.5,21.4,16.5,21.5z
	 M18.9,19.6v-6.4c3.3,0.5,5.9,3.1,6.4,6.4H18.9z M20.7,22.1h4.6c-0.2,1.2-0.6,2.3-1.3,3.3L20.7,22.1z"/>
<path d="M27.3,35.4c-0.2-0.1-0.4-0.1-0.5,0.1L22,39.1l-4.4-0.7c-0.1,0-0.2,0-0.4,0.1l-4.5,3l-4.3-0.9c-0.1,0-0.3,0-0.4,0.1
	c-0.1,0.1-0.2,0.2-0.2,0.4v13.4C7.8,54.8,8,55,8.3,55H27c0.3,0,0.5-0.2,0.5-0.5V35.8C27.5,35.6,27.4,35.4,27.3,35.4z M10.4,48.6
	l2.5,1c0.1,0.1,0.3,0,0.4,0l4.5-3l4,1.4l0.4,0.1c0.2,0.1,0.3,0,0.5-0.1l2.2-1.7v6.2H10.4V48.6z M25,43l-2.9,2.3l-4.4-1.5
	c-0.1,0-0.3,0-0.4,0l-4.5,3l-2.5-1v-2.3l2.4,0.5l0.3,0.1c0.1,0,0.3,0,0.4-0.1l4.5-3l4.2,0.7l0.3,0c0.1,0,0.3,0,0.4-0.1L25,40V43z"/>
</svg>
