<?xml version="1.0" encoding="utf-8"?>
<!-- Generator: Adobe Illustrator 24.2.3, SVG Export Plug-In . SVG Version: 6.00 Build 0)  -->
<svg version="1.1" id="Layer_1" xmlns="http://www.w3.org/2000/svg" xmlns:xlink="http://www.w3.org/1999/xlink" x="0px" y="0px"
	 viewBox="0 0 51.4 61.9" style="enable-background:new 0 0 51.4 61.9;" xml:space="preserve">
<path d="M25.7,1.5C13.2,1.5,3.1,11.6,3.1,24c0,7.5,2.2,10.6,11.7,24.1c2.1,2.9,4.4,6.3,7.2,10.3l0,0c0.8,1.2,2.2,1.9,3.7,1.9
	c1.5,0,2.9-0.7,3.7-2c2.8-4,5.1-7.4,7.2-10.3C46,34.7,48.3,31.5,48.3,24C48.3,11.6,38.1,1.5,25.7,1.5z M33.4,45.9
	c-2.1,2.9-4.4,6.3-7.2,10.3c-0.2,0.2-0.4,0.3-0.5,0.3c-0.1,0-0.4,0-0.5-0.3c-2.8-4-5.1-7.4-7.2-10.3C8.7,32.7,7,30.3,7,24
	C7,13.7,15.4,5.4,25.7,5.4C36,5.4,44.4,13.7,44.4,24C44.4,30.3,42.7,32.7,33.4,45.9z"/>
<path d="M31.5,17.2C31.5,17.2,31.5,17.2,31.5,17.2c-0.3,0-0.6,0.1-0.8,0.3l-7.2,7.2l-2.9-2.9c-0.4-0.4-1.2-0.4-1.6,0L17.8,23
	c-0.2,0.2-0.3,0.5-0.3,0.8c0,0.3,0.1,0.6,0.3,0.8l4.9,4.9c0.2,0.2,0.5,0.3,0.8,0.3c0,0,0,0,0,0c0.3,0,0.6-0.1,0.8-0.3l9.2-9.2
	c0.4-0.4,0.4-1.2,0-1.6l-1.2-1.2C32.1,17.3,31.8,17.2,31.5,17.2z"/>
<path d="M25.7,9.1c-7.6,0-13.8,6.2-13.8,13.8s6.2,13.8,13.8,13.8s13.8-6.2,13.8-13.8S33.3,9.1,25.7,9.1z M35.9,22.9
	c0,5.6-4.6,10.2-10.2,10.2s-10.2-4.6-10.2-10.2S20,12.6,25.7,12.6S35.9,17.2,35.9,22.9z"/>
</svg>
